<?xml version="1.0" encoding="UTF-8" standalone="no"?>
<!-- Created with Inkscape (http://www.inkscape.org/) -->

<svg
   xmlns:dc="http://purl.org/dc/elements/1.1/"
   xmlns:cc="http://creativecommons.org/ns#"
   xmlns:rdf="http://www.w3.org/1999/02/22-rdf-syntax-ns#"
   xmlns:svg="http://www.w3.org/2000/svg"
   xmlns="http://www.w3.org/2000/svg"
   xmlns:sodipodi="http://sodipodi.sourceforge.net/DTD/sodipodi-0.dtd"
   xmlns:inkscape="http://www.inkscape.org/namespaces/inkscape"
   width="763.50586mm"
   height="427.08798mm"
   viewBox="0 0 363.57416 143.80067"
   version="1.1"
   id="svg4735"
   inkscape:version="0.92.1 r15371"
   sodipodi:docname="cbbg2draw.svg">
  <defs
     id="defs4729" />
  <sodipodi:namedview
     id="base"
     pagecolor="#ffffff"
     bordercolor="#666666"
     borderopacity="1.0"
     inkscape:pageopacity="0.0"
     inkscape:pageshadow="2"
     inkscape:zoom="0.18"
     inkscape:cx="2271.1677"
     inkscape:cy="544.47724"
     inkscape:document-units="mm"
     inkscape:current-layer="layer1"
     showgrid="false"
     inkscape:object-nodes="true"
     inkscape:window-width="1600"
     inkscape:window-height="837"
     inkscape:window-x="-8"
     inkscape:window-y="-8"
     inkscape:window-maximized="1"
     width="298mm"
     fit-margin-top="0"
     fit-margin-left="0"
     fit-margin-right="0"
     fit-margin-bottom="0" />
  <metadata
     id="metadata4732">
    <rdf:RDF>
      <cc:Work
         rdf:about="">
        <dc:format>image/svg+xml</dc:format>
        <dc:type
           rdf:resource="http://purl.org/dc/dcmitype/StillImage" />
        <dc:title></dc:title>
      </cc:Work>
    </rdf:RDF>
  </metadata>
  <g
     inkscape:label="Layer 1"
     inkscape:groupmode="layer"
     id="layer1"
     transform="translate(100.9003,-17.623464)">
    <path
       style="fill:#ff7f2a;stroke-width:0.34692574"
       d="M -100.9003,-13.638968 V 130.7393 a 290.66371,58.208333 0 0 1 1.580266,-0.33951 290.66371,58.208333 0 0 1 21.828125,-3.84008 290.66371,58.208333 0 0 1 23.633181,-3.38429 290.66371,58.208333 0 0 1 25.20208,-2.89543 290.66371,58.208333 0 0 1 26.5198278,-2.3766 290.66371,58.208333 0 0 1 27.5719602,-1.83451 290.66371,58.208333 0 0 1 28.349174,-1.27434 290.66371,58.208333 0 0 1 28.842687,-0.70125 290.66371,58.208333 0 0 1 20.560499,-0.14573 290.66371,58.208333 0 0 1 29.01786,0.29094 290.66371,58.208333 0 0 1 28.72797,0.8692 290.66371,58.208333 0 0 1 28.15125,1.4397 290.66371,58.208333 0 0 1 27.29291,1.99523 290.66371,58.208333 0 0 1 26.16171,2.53059 290.66371,58.208333 0 0 1 20.13468,2.4722 V -13.638968 Z"
       id="rect3688"
       inkscape:connector-curvature="0" />
    <rect
       style="opacity:0.497;fill:#ff00bf;fill-opacity:1;stroke-width:0.30364716"
       id="rect3722"
       width="87.119637"
       height="31.476295"
       x="164.02924"
       y="19.443708"
       rx="11.853759"
       ry="9" />
    <rect
       style="opacity:0.63200001;fill:#ff00bf;fill-opacity:1;stroke-width:0.30364716"
       id="rect3722-9"
       width="87.119637"
       height="31.476297"
       x="-44.248211"
       y="37.636185"
       rx="11.985467"
       ry="9" />
    <rect
       style="opacity:0.50700001;fill:#ff00bf;fill-opacity:1;stroke-width:0.30364716"
       id="rect3722-2"
       width="87.119637"
       height="31.476297"
       x="-89.217979"
       y="19.954668"
       rx="11.853759"
       ry="9" />
    <rect
       style="opacity:0.51999996;fill:#ff00bf;fill-opacity:1;stroke-width:0.30364716"
       id="rect3722-9-1"
       width="87.119637"
       height="31.476299"
       x="139.38066"
       y="35.465332"
       rx="11.985467"
       ry="9" />
  </g>
  <g
     inkscape:groupmode="layer"
     id="layer3"
     inkscape:label="Layer 3"
     transform="translate(100.9003,-17.623464)" />
  <g
     inkscape:groupmode="layer"
     id="layer2"
     inkscape:label="Layer 2"
     transform="translate(100.9003,-17.623464)">
    <circle
       style="fill:#ffcc00;stroke-width:0.46284005"
       id="path3708"
       cx="82.581261"
       cy="105.2292"
       r="45.885006" />
    <path
       style="fill:#26b227;fill-opacity:1;stroke-width:0.34692574"
       d="m 262.67388,123.54542 a 290.66371,58.208333 0 0 0 -20.13469,-2.4722 290.66371,58.208333 0 0 0 -26.16171,-2.5306 290.66371,58.208333 0 0 0 -27.29291,-1.99522 290.66371,58.208333 0 0 0 -28.15125,-1.43971 290.66371,58.208333 0 0 0 -28.72796,-0.8692 290.66371,58.208333 0 0 0 -29.01787,-0.29093 290.66371,58.208333 0 0 0 -20.560492,0.14572 290.66371,58.208333 0 0 0 -28.842684,0.70125 290.66371,58.208333 0 0 0 -28.349175,1.27434 290.66371,58.208333 0 0 0 -27.5719597,1.83452 290.66371,58.208333 0 0 0 -26.5198273,2.3766 290.66371,58.208333 0 0 0 -25.20208,2.89543 290.66371,58.208333 0 0 0 -23.633181,3.38429 290.66371,58.208333 0 0 0 -21.828125,3.84007 290.66371,58.208333 0 0 0 -1.580266,0.33952 v 60.9017 h 363.57418 z"
       id="path6364"
       inkscape:connector-curvature="0" />
    <text
       xml:space="preserve"
       style="font-style:normal;font-variant:normal;font-weight:normal;font-stretch:normal;font-size:20.89368629px;line-height:1.25;font-family:'Century Gothic';-inkscape-font-specification:'Century Gothic';letter-spacing:0px;word-spacing:0px;fill:#ffffff;fill-opacity:1;stroke:none;stroke-width:0.52234215"
       x="-93.451096"
       y="168.183"
       id="text4552"><tspan
         sodipodi:role="line"
         id="tspan4550"
         x="-93.451096"
         y="168.183"
         style="font-style:normal;font-variant:normal;font-weight:normal;font-stretch:normal;font-family:'Century Gothic';-inkscape-font-specification:'Century Gothic';fill:#ffffff;stroke-width:0.52234215">Credit Bro</tspan></text>
  </g>
</svg>
